# xmcd
# 
# Track frame offsets:
#     150
#     9707
#     22372
#     37062
#     47422
#     56610
#     72510
#     83925
#     103002
#     113327
#     122237
#     134312
#     147272
#     159857
# 
# Disc length: 2256
# 
# Revision: 2
# Processed by: cddbd v1.5.2PL0 Copyright (c) Steve Scherf et al.
# Submitted via: BonkEnc v1.0.8
# 
DISCID=c108ce0e
DTITLE=Doyle Lawson and Quicksilver - There's A Light Guiding Me
DYEAR=1996
DGENRE=Bluegrass
TTITLE0=Since Jesus Came Into My Heart
TTITLE1=Let Me Tell You About Jesus
TTITLE2=There Is A God
TTITLE3=I'm A Weary Pilgrim
TTITLE4=I'm Going To Heaven
TTITLE5=The Beautiful Altar Of Prayer
TTITLE6=Who'll Be A Witness
TTITLE7=There's A Light Guiding Me
TTITLE8=Earth's Greatest Loss
TTITLE9=I Need My Savior All The Time
TTITLE10=The Arm Of God
TTITLE11=The Life Boat
TTITLE12=Calling To That Other Shore
TTITLE13=There's Fire Down Yonder
EXTD=
EXTT0=
EXTT1=
EXTT2=
EXTT3=
EXTT4=
EXTT5=
EXTT6=
EXTT7=
EXTT8=
EXTT9=
EXTT10=
EXTT11=
EXTT12=
EXTT13=
PLAYORDER=
